<?xml version="1.0" encoding="UTF-8" standalone="no"?>
<!-- Created with Inkscape (http://www.inkscape.org/) -->

<svg
   version="1.1"
   id="svg2"
   width="2666.6667"
   height="2666.6667"
   viewBox="0 0 2666.6667 2666.6667"
   sodipodi:docname="logo.ai"
   xmlns:inkscape="http://www.inkscape.org/namespaces/inkscape"
   xmlns:sodipodi="http://sodipodi.sourceforge.net/DTD/sodipodi-0.dtd"
   xmlns="http://www.w3.org/2000/svg"
   xmlns:svg="http://www.w3.org/2000/svg">
  <defs
     id="defs6">
    <clipPath
       clipPathUnits="userSpaceOnUse"
       id="clipPath16">
      <path
         d="M 0,2000 H 2000 V 0 H 0 Z"
         id="path14" />
    </clipPath>
  </defs>
  <sodipodi:namedview
     id="namedview4"
     pagecolor="#ffffff"
     bordercolor="#000000"
     borderopacity="0.25"
     inkscape:showpageshadow="2"
     inkscape:pageopacity="0.0"
     inkscape:pagecheckerboard="0"
     inkscape:deskcolor="#d1d1d1" />
  <g
     id="g8"
     inkscape:groupmode="layer"
     inkscape:label="logo"
     transform="matrix(1.3333333,0,0,-1.3333333,0,2666.6667)">
    <g
       id="g10">
      <g
         id="g12"
         clip-path="url(#clipPath16)">
        <g
           id="g18"
           transform="translate(722.8414,1922.7976)">
          <path
             d="m 0,0 h 556.952 l 201.282,-199.175 v -154.518 c 0,-4.584 -3.715,-8.299 -8.299,-8.299 H 527.313 c -4.584,0 -8.299,3.715 -8.299,8.299 v 65.733 L 409.942,-183.104 H 144.639 L 38.992,-289.014 v -78.511 L 437.868,-770.09 374.111,-834.637 H 182.577 l -386.494,383.332 v 252.13 z"
             style="fill:#ffffff;fill-opacity:1;fill-rule:nonzero;stroke:none"
             id="path20" />
        </g>
        <g
           id="g22"
           transform="translate(1241.4932,1099.5763)">
          <path
             d="m 0,0 v 89.631 l -395.729,397.903 56.291,56.05 h 203.421 L 238.211,169.115 V -113.79 L 38.413,-311.413 H -63.781 l -201.246,201.73 h 156.552 z"
             style="fill:#ffffff;fill-opacity:1;fill-rule:nonzero;stroke:none"
             id="path24" />
        </g>
        <g
           id="g26"
           transform="translate(929.1288,989.8932)">
          <path
             d="m 0,0 h -59.97 l -109.767,110.013 v 68.437 c 0,4.587 -3.719,8.307 -8.307,8.307 h -223.854 c -4.587,0 -8.306,-3.72 -8.306,-8.307 V -2.776 l 199.812,-198.954 h 411.97 z"
             style="fill:#ffffff;fill-opacity:1;fill-rule:nonzero;stroke:none"
             id="path28" />
        </g>
        <g
           id="g30"
           transform="translate(607.1491,567.9547)">
          <path
             d="m 0,0 h -50.213 c -2.638,0 -4.777,-2.139 -4.777,-4.777 v -288.287 c 0,-3.39 2.748,-6.139 6.139,-6.139 h 213.61 c 3.499,0 6.336,2.837 6.336,6.336 v 47.094 c 0,3.5 -2.837,6.336 -6.336,6.336 L 4.777,-239.436 V -4.777 C 4.777,-2.139 2.638,0 0,0"
             style="fill:#ffffff;fill-opacity:1;fill-rule:nonzero;stroke:none"
             id="path32" />
        </g>
        <g
           id="g34"
           transform="translate(1808.0677,510.7706)">
          <path
             d="m 0,0 v 52.181 c 0,2.095 -1.698,3.793 -3.792,3.793 h -239.601 c -2.095,0 -3.793,-1.698 -3.793,-3.793 v -290.407 c 0,-2.095 1.698,-3.793 3.793,-3.793 H -3.792 c 2.094,0 3.792,1.698 3.792,3.793 v 52.181 c 0,2.095 -1.698,3.793 -3.792,3.793 h -183.627 v 61.548 h 134.942 c 2.094,0 3.792,1.698 3.792,3.792 v 52.182 c 0,2.094 -1.698,3.792 -3.792,3.792 H -187.419 V -3.793 H -3.792 C -1.698,-3.793 0,-2.095 0,0"
             style="fill:#ffffff;fill-opacity:1;fill-rule:nonzero;stroke:none"
             id="path36" />
        </g>
        <g
           id="g38"
           transform="translate(1208.1742,506.9779)">
          <path
             d="m 0,0 h 101.79 v -230.795 c 0,-3.759 3.047,-6.806 6.806,-6.806 h 46.155 c 3.759,0 6.806,3.047 6.806,6.806 V 0 h 101.789 c 3.324,0 6.018,2.694 6.018,6.017 v 47.732 c 0,3.324 -2.694,6.018 -6.018,6.018 H 0 c -3.323,0 -6.017,-2.694 -6.017,-6.018 V 6.017 C -6.017,2.694 -3.323,0 0,0"
             style="fill:#ffffff;fill-opacity:1;fill-rule:nonzero;stroke:none"
             id="path40" />
        </g>
        <g
           id="g42"
           transform="translate(267.5579,506.7528)">
          <path
             d="m 0,0 h 174.284 c 3.148,0 5.7,2.552 5.7,5.7 v 48.366 c 0,3.148 -2.552,5.7 -5.7,5.7 H -21.27 c -29.819,0 -53.992,-24.173 -53.992,-53.992 v -69.439 c 0,-29.819 24.173,-53.992 53.992,-53.992 h 130.408 c 8.558,0 15.496,-6.938 15.496,-15.496 v -29.585 c 0,-8.559 -6.938,-15.496 -15.496,-15.496 H -69.926 c -3.148,0 -5.7,-2.552 -5.7,-5.701 v -48.366 c 0,-3.148 2.552,-5.7 5.7,-5.7 h 200.335 c 29.819,0 53.992,24.173 53.992,53.992 v 72.126 c 0,29.819 -24.173,53.992 -53.992,53.992 L 0,-57.891 c -8.558,0 -15.496,6.938 -15.496,15.496 v 26.899 C -15.496,-6.938 -8.558,0 0,0"
             style="fill:#ffffff;fill-opacity:1;fill-rule:nonzero;stroke:none"
             id="path44" />
        </g>
        <g
           id="g46"
           transform="translate(963.1906,391.1435)">
          <path
             d="M 0,0 47.575,103.88 94.636,0 Z m 83.101,170.292 c -1.464,3.233 -4.684,5.309 -8.233,5.309 H 20.487 c -3.535,0 -6.746,-2.061 -8.218,-5.275 l -129.44,-282.634 c -2.026,-4.423 1.206,-9.459 6.071,-9.459 h 50.625 c 2.869,0 5.474,1.673 6.669,4.281 l 26.434,57.719 h 149.084 l 26.137,-57.692 c 1.188,-2.623 3.801,-4.308 6.681,-4.308 h 50.528 c 4.853,0 8.085,5.013 6.082,9.434 z"
             style="fill:#ffffff;fill-opacity:1;fill-rule:nonzero;stroke:none"
             id="path48" />
        </g>
        <g
           id="g50"
           transform="translate(1167.5942,164.1848)">
          <path
             d="m 0,0 v 18.754 c 0,0.753 -0.61,1.363 -1.363,1.363 h -86.113 c -0.753,0 -1.363,-0.61 -1.363,-1.363 V -85.619 c 0,-0.753 0.61,-1.363 1.363,-1.363 h 86.113 c 0.753,0 1.363,0.61 1.363,1.363 v 18.754 c 0,0.753 -0.61,1.363 -1.363,1.363 h -65.996 v 22.12 h 48.498 c 0.753,0 1.364,0.611 1.364,1.364 v 18.754 c 0,0.753 -0.611,1.363 -1.364,1.363 H -67.359 V -1.363 H -1.363 C -0.61,-1.363 0,-0.753 0,0"
             style="fill:#ffffff;fill-opacity:1;fill-rule:nonzero;stroke:none"
             id="path52" />
        </g>
        <g
           id="g54"
           transform="translate(933.7335,162.8217)">
          <path
             d="m 0,0 h 36.584 v -82.948 c 0,-1.351 1.095,-2.447 2.446,-2.447 h 16.588 c 1.351,0 2.446,1.096 2.446,2.447 V 0 h 36.583 c 1.195,0 2.163,0.968 2.163,2.163 v 17.155 c 0,1.194 -0.968,2.162 -2.163,2.162 H 0 c -1.194,0 -2.163,-0.968 -2.163,-2.162 V 2.163 C -2.163,0.968 -1.194,0 0,0"
             style="fill:#ffffff;fill-opacity:1;fill-rule:nonzero;stroke:none"
             id="path56" />
        </g>
        <g
           id="g58"
           transform="translate(534.1776,162.7408)">
          <path
             d="m 0,0 h 62.638 c 1.131,0 2.049,0.917 2.049,2.049 v 17.383 c 0,1.131 -0.918,2.048 -2.049,2.048 H -7.645 c -10.717,0 -19.405,-8.688 -19.405,-19.405 v -24.956 c 0,-10.717 8.688,-19.405 19.405,-19.405 h 46.869 c 3.076,0 5.57,-2.494 5.57,-5.57 v -10.633 c 0,-3.075 -2.494,-5.569 -5.569,-5.569 h -64.357 c -1.131,0 -2.048,-0.917 -2.048,-2.049 V -83.49 c 0,-1.131 0.917,-2.048 2.048,-2.048 h 72.001 c 10.717,0 19.405,8.688 19.405,19.405 v 25.922 c 0,10.717 -8.688,19.405 -19.405,19.405 H 0 c -3.076,0 -5.569,2.493 -5.569,5.569 v 9.668 C -5.569,-2.493 -3.076,0 0,0"
             style="fill:#ffffff;fill-opacity:1;fill-rule:nonzero;stroke:none"
             id="path60" />
        </g>
        <g
           id="g62"
           transform="translate(820.0563,162.7408)">
          <path
             d="m 0,0 h 62.638 c 1.132,0 2.049,0.917 2.049,2.049 v 17.383 c 0,1.131 -0.917,2.048 -2.049,2.048 H -7.645 c -10.717,0 -19.405,-8.688 -19.405,-19.405 v -24.956 c 0,-10.717 8.688,-19.405 19.405,-19.405 h 46.87 c 3.075,0 5.569,-2.494 5.569,-5.57 v -10.633 c 0,-3.075 -2.494,-5.569 -5.569,-5.569 h -64.356 c -1.132,0 -2.049,-0.917 -2.049,-2.049 V -83.49 c 0,-1.131 0.917,-2.048 2.049,-2.048 h 72 c 10.717,0 19.405,8.688 19.405,19.405 v 25.922 c 0,10.717 -8.688,19.405 -19.405,19.405 H 0 c -3.076,0 -5.569,2.493 -5.569,5.569 v 9.668 C -5.569,-2.493 -3.076,0 0,0"
             style="fill:#ffffff;fill-opacity:1;fill-rule:nonzero;stroke:none"
             id="path64" />
        </g>
        <g
           id="g66"
           transform="translate(1426.7284,162.7408)">
          <path
             d="m 0,0 h 62.638 c 1.132,0 2.049,0.917 2.049,2.049 v 17.383 c 0,1.131 -0.917,2.048 -2.049,2.048 H -7.645 c -10.717,0 -19.405,-8.688 -19.405,-19.405 v -24.956 c 0,-10.717 8.688,-19.405 19.405,-19.405 h 46.869 c 3.076,0 5.57,-2.494 5.57,-5.57 v -10.633 c 0,-3.075 -2.494,-5.569 -5.569,-5.569 h -64.356 c -1.132,0 -2.049,-0.917 -2.049,-2.049 V -83.49 c 0,-1.131 0.917,-2.048 2.049,-2.048 h 72 c 10.717,0 19.405,8.688 19.405,19.405 v 25.922 c 0,10.717 -8.688,19.405 -19.405,19.405 H 0 c -3.076,0 -5.569,2.493 -5.569,5.569 v 9.668 C -5.569,-2.493 -3.076,0 0,0"
             style="fill:#ffffff;fill-opacity:1;fill-rule:nonzero;stroke:none"
             id="path68" />
        </g>
        <g
           id="g70"
           transform="translate(633.4447,189.3482)">
          <path
             d="M 0,0 V 0 Z"
             style="fill:#ffffff;fill-opacity:1;fill-rule:nonzero;stroke:none"
             id="path72" />
        </g>
        <g
           id="g74"
           transform="translate(728.138,184.2211)">
          <path
             d="M 0,0 -31.231,-42.293 -63.594,0 H -90.77 l 48.901,-63.906 v -42.888 h 21.583 v 42.99 L 26.829,0 Z"
             style="fill:#ffffff;fill-opacity:1;fill-rule:nonzero;stroke:none"
             id="path76" />
        </g>
        <g
           id="g78"
           transform="translate(1344.2744,77.2026)">
          <path
             d="m 0,0 v 107.016 h -24.568 l -38.943,-72.745 -38.942,72.745 h -24.568 V 0 h 21.582 V 67.448 L -70.183,2.877 h 13.344 l 35.257,64.572 0,-67.449 z"
             style="fill:#ffffff;fill-opacity:1;fill-rule:nonzero;stroke:none"
             id="path80" />
        </g>
      </g>
    </g>
  </g>
</svg>
